<svg xmlns="http://www.w3.org/2000/svg" viewBox="0 0 256 341"><defs><style>.cls-1{fill:#b3e17e;}.cls-2{fill-rule:evenodd;}</style></defs><g id="Layer_1" data-name="Layer 1"><rect class="cls-1" width="256" height="341"/></g><g id="Layer_2" data-name="Layer 2"><path class="cls-2" d="M128.85,124.23c9.63,0,10.78,13.16.11,13.16H102.22c-5.4,0-5.36,6.15,2.45,6.14h46.67l-13.28,13.06h-7.15a10.93,10.93,0,0,0-6-5.14c-6.9-2.5-10.72,1.4-15,5.45C95.49,170.65,77.78,186,72.08,204.38,57.85,198.41,48,187.24,48,166.79c0-48.31,48.18-42.85,80.85-42.56m55.93-12.92c3.16.1,9.26,11.57,9.09,16.8a9.62,9.62,0,0,1-19.23-.59c.17-5.23,7-16.31,10.15-16.21Zm-28.27.1c3.16.1,9.25,11.58,9.09,16.8a9.62,9.62,0,0,1-19.23-.6c.17-5.22,7-16.3,10.15-16.21Zm42.4-26.9c3.16.1,9.25,11.58,9.09,16.8a9.63,9.63,0,0,1-19.24-.59C188.93,95.5,195.76,84.42,198.91,84.51Zm-28.27.1c3.16.1,9.25,11.58,9.09,16.81a9.62,9.62,0,0,1-19.23-.6c.17-5.23,7-16.31,10.15-16.21Zm-28.25-.42c3.15.1,9.25,11.58,9.08,16.81a9.62,9.62,0,0,1-19.23-.61c.17-5.22,7-16.3,10.15-16.2Zm-26.83,73.24c6.81-6.7,17.07,1.8,9.53,9.22l-18.91,18.61c-3.8,3.74.63,8.08,6.15,2.64s37-36.39,44.39-43.67,17.19,1.54,9.34,9.26L133.9,185.14c-3,2.92.77,7.23,4.19,3.86l37.08-36.49c6.23-6.14,15.21,2.86,9.25,8.73l-36.57,36c-3.1,3.05.4,7,4.46,3l30.23-29.74c5.48-5.39,13.81,3.4,8.73,8.4l-31.1,30.61c-2.46,2.42,1.33,5.84,3.94,3.27s16.37-16.1,22.81-22.45,15.86,2.07,8.87,8.94c-25.41,25-67.21,83.46-106.82,44.49-34.72-34.16,3.27-63.82,26.59-86.35Z"/></g></svg>