<svg xmlns="http://www.w3.org/2000/svg" viewBox="0 0 256 341"><defs><style>.cls-1{fill:#fc5a62;}</style></defs><g id="Layer_1" data-name="Layer 1"><rect class="cls-1" x="-0.1" y="-8" width="256" height="349.2"/></g><g id="Layer_2" data-name="Layer 2"><path d="M191.08,126.56a5.9,5.9,0,0,0-1.29-1.88L149.36,84.9a6,6,0,0,0-1.92-1.25,5.94,5.94,0,0,0-2.28-.45h-75A5.89,5.89,0,0,0,64.26,89V252.37A5.76,5.76,0,0,0,66,256.49a5.93,5.93,0,0,0,4.19,1.71H185.61a6,6,0,0,0,4.19-1.71,5.79,5.79,0,0,0,1.74-4.12V128.8A5.79,5.79,0,0,0,191.08,126.56Zm-40-23.45L171.29,123h-20.2Zm-75,143.42V94.87h63.09V128.8a5.75,5.75,0,0,0,1.75,4.13,6,6,0,0,0,4.19,1.71h34.51V246.53Z"/><path d="M122.33,194.9a6,6,0,0,0,4.1,1.61,7,7,0,0,0,.8,0,6,6,0,0,0,4.29-2.79l11.86-19.49a5.78,5.78,0,0,0-2-8.06,6,6,0,0,0-8.18,2.07l-8,13.23-3.53-3.31h0a6,6,0,0,0-8.47.11,5.75,5.75,0,0,0,.29,8.33Z"/><path d="M128.16,223.5c-23.84,0-43.24-19.11-43.24-42.6s19.4-42.6,43.24-42.6,43.23,19.11,43.23,42.6S152,223.5,128.16,223.5Zm0-75.14C109.86,148.36,95,163,95,180.9s14.88,32.53,33.18,32.53,33.17-14.59,33.17-32.53S146.45,148.36,128.16,148.36Z"/></g></svg>