<svg xmlns="http://www.w3.org/2000/svg" viewBox="0 0 256 341"><defs><style>.cls-1{fill:#ffc001;}.cls-2{fill:none;}</style></defs><g id="Layer_1" data-name="Layer 1"><rect class="cls-1" width="256" height="341"/></g><g id="Layer_2" data-name="Layer 2"><path class="cls-2" d="M167.77,123.31a61.71,61.71,0,0,0-87,87Z"/><path class="cls-2" d="M179.84,137,94.52,222.34A61.69,61.69,0,0,0,179.84,137Z"/><path d="M128,90.5a80,80,0,1,0,80,80A80.09,80.09,0,0,0,128,90.5Zm-61.77,80a61.71,61.71,0,0,1,101.54-47.19l-87,87A61.48,61.48,0,0,1,66.23,170.5ZM128,232.27a61.44,61.44,0,0,1-33.48-9.93L179.84,137A61.69,61.69,0,0,1,128,232.27Z"/></g></svg>