<svg xmlns="http://www.w3.org/2000/svg" viewBox="0 0 256 341"><defs><style>.cls-1{fill:#bfbfbf;}.cls-2{fill:none;stroke:#000;stroke-linecap:round;stroke-linejoin:round;stroke-width:10.02px;}</style></defs><g id="Layer_1" data-name="Layer 1"><rect class="cls-1" width="256" height="341"/></g><g id="Layer_2" data-name="Layer 2"><path class="cls-2" d="M128.46,164.47V96.09a12.1,12.1,0,0,1,24.2,0v10.73"/><path class="cls-2" d="M152.66,164.47V106.82a12.11,12.11,0,0,1,24.21,0v58.32"/><path class="cls-2" d="M176.87,122.91v-5.08a12.28,12.28,0,0,1,11.66-12.35,12.09,12.09,0,0,1,12.54,12.06V229.89A27.12,27.12,0,0,1,173.91,257h-39a60.69,60.69,0,0,1-51.75-29.76L68.6,202.64a19.1,19.1,0,0,0-4.78-5.52l-5.73-4.49A8.41,8.41,0,0,1,55,186.89a8.32,8.32,0,0,1,2-6.21A18.62,18.62,0,0,1,70,174.52l.75,0a18.55,18.55,0,0,1,12.81,5.11l.1.1,20.19,22.2v-19l.38-75.45a12.11,12.11,0,0,1,24.21,0"/></g></svg>