<svg xmlns="http://www.w3.org/2000/svg" viewBox="0 0 256 341"><defs><style>.cls-1{fill:#ffff5b;}</style></defs><g id="Layer_1" data-name="Layer 1"><rect class="cls-1" width="256" height="341"/></g><g id="Layer_2" data-name="Layer 2"><path d="M96,90.87,80,74.94h72c4.8,0,8,3.19,8,8v8Zm0,31.86a32,32,0,0,0,64,0V98.84H96L80,114.76H96Zm88,39.81L88,258.09v8h80V210.32c0-4.78,3.2-8,8-8s8,3.19,8,8v55.74h24V190.41C208,176.08,197.59,164.93,184,162.54ZM88,210.31c0-4.78-3.2-8-8-8s-8,3.19-8,8v55.74H48V190.4c0-15.12,12.79-27.86,28-27.86h84L88,234.2Zm16-31.84c-4.8,0-8,3.18-8,8s3.2,8,8,8,8-3.19,8-8-3.2-8-8-8"/></g></svg>